<svg width="43" height="42" viewBox="0 0 43 42" fill="none" xmlns="http://www.w3.org/2000/svg">
<rect x="1" y="0.5" width="41" height="41" rx="20.5" stroke="#FF6600"/>
<path d="M27 14C27.8125 14 28.5 14.6875 28.5 15.5V26.5C28.5 27.3438 27.8125 28 27 28H22.6875V23.25H24.5L24.8438 21H22.6875V19.5625C22.6875 18.9375 23 18.3438 23.9688 18.3438H24.9375V16.4375C24.9375 16.4375 24.0625 16.2812 23.1875 16.2812C21.4375 16.2812 20.2812 17.375 20.2812 19.3125V21H18.3125V23.25H20.2812V28H16C15.1562 28 14.5 27.3438 14.5 26.5V15.5C14.5 14.6875 15.1562 14 16 14H27Z" fill="#FF6600"/>
</svg>
