<svg width="43" height="42" viewBox="0 0 43 42" fill="none" xmlns="http://www.w3.org/2000/svg">
<rect x="1" y="0.5" width="41" height="41" rx="20.5" stroke="#FF6600"/>
<path d="M21.5 17.4062C23.4688 17.4062 25.0938 19.0312 25.0938 21C25.0938 23 23.4688 24.5938 21.5 24.5938C19.5 24.5938 17.9062 23 17.9062 21C17.9062 19.0312 19.5 17.4062 21.5 17.4062ZM21.5 23.3438C22.7812 23.3438 23.8125 22.3125 23.8125 21C23.8125 19.7188 22.7812 18.6875 21.5 18.6875C20.1875 18.6875 19.1562 19.7188 19.1562 21C19.1562 22.3125 20.2188 23.3438 21.5 23.3438ZM26.0625 17.2812C26.0625 17.75 25.6875 18.125 25.2188 18.125C24.75 18.125 24.375 17.75 24.375 17.2812C24.375 16.8125 24.75 16.4375 25.2188 16.4375C25.6875 16.4375 26.0625 16.8125 26.0625 17.2812ZM28.4375 18.125C28.5 19.2812 28.5 22.75 28.4375 23.9062C28.375 25.0312 28.125 26 27.3125 26.8438C26.5 27.6562 25.5 27.9062 24.375 27.9688C23.2188 28.0312 19.75 28.0312 18.5938 27.9688C17.4688 27.9062 16.5 27.6562 15.6562 26.8438C14.8438 26 14.5938 25.0312 14.5312 23.9062C14.4688 22.75 14.4688 19.2812 14.5312 18.125C14.5938 17 14.8438 16 15.6562 15.1875C16.5 14.375 17.4688 14.125 18.5938 14.0625C19.75 14 23.2188 14 24.375 14.0625C25.5 14.125 26.5 14.375 27.3125 15.1875C28.125 16 28.375 17 28.4375 18.125ZM26.9375 25.125C27.3125 24.2188 27.2188 22.0312 27.2188 21C27.2188 20 27.3125 17.8125 26.9375 16.875C26.6875 16.2812 26.2188 15.7812 25.625 15.5625C24.6875 15.1875 22.5 15.2812 21.5 15.2812C20.4688 15.2812 18.2812 15.1875 17.375 15.5625C16.75 15.8125 16.2812 16.2812 16.0312 16.875C15.6562 17.8125 15.75 20 15.75 21C15.75 22.0312 15.6562 24.2188 16.0312 25.125C16.2812 25.75 16.75 26.2188 17.375 26.4688C18.2812 26.8438 20.4688 26.75 21.5 26.75C22.5 26.75 24.6875 26.8438 25.625 26.4688C26.2188 26.2188 26.7188 25.75 26.9375 25.125Z" fill="#FF6600"/>
</svg>
