<svg width="43" height="42" viewBox="0 0 43 42" fill="none" xmlns="http://www.w3.org/2000/svg">
<rect x="1" y="0.5" width="41" height="41" rx="20.5" stroke="#FF6600"/>
<path d="M17.625 27H14.7188V17.6562H17.625V27ZM16.1562 16.4062C15.25 16.4062 14.5 15.625 14.5 14.6875C14.5 13.7812 15.25 13.0312 16.1562 13.0312C17.0938 13.0312 17.8438 13.7812 17.8438 14.6875C17.8438 15.625 17.0938 16.4062 16.1562 16.4062ZM28.4688 27H25.5938V22.4688C25.5938 21.375 25.5625 20 24.0625 20C22.5625 20 22.3438 21.1562 22.3438 22.375V27H19.4375V17.6562H22.2188V18.9375H22.25C22.6562 18.2188 23.5938 17.4375 25 17.4375C27.9375 17.4375 28.5 19.375 28.5 21.875V27H28.4688Z" fill="#FF6600"/>
</svg>
