<svg width="14" height="11" viewBox="0 0 14 11" fill="none" xmlns="http://www.w3.org/2000/svg">
<path d="M7.27578 6.41643L2.93655 10.7557C2.78765 10.9046 2.60685 10.979 2.39414 10.979C2.18144 10.979 2.00063 10.9046 1.85174 10.7557L1.1498 10.0218C1.00091 9.87292 0.926462 9.69212 0.926462 9.47942C0.926462 9.26671 1.00091 9.08591 1.1498 8.93701L4.21279 5.87402L1.1498 2.81104C1.00091 2.66214 0.926462 2.48134 0.926462 2.26863C0.926462 2.05592 1.00091 1.87512 1.1498 1.72623L1.85174 0.992386C2.00063 0.843491 2.18144 0.769043 2.39414 0.769043C2.60685 0.769043 2.78765 0.843491 2.93655 0.992386L7.27578 5.33162C7.42468 5.48051 7.49912 5.66132 7.49912 5.87402C7.49912 6.08673 7.42468 6.26753 7.27578 6.41643ZM13.4018 5.33162C13.5507 5.48051 13.6251 5.66132 13.6251 5.87402C13.6251 6.08673 13.5507 6.26753 13.4018 6.41643L9.06252 10.7557C8.91363 10.9046 8.73283 10.979 8.52012 10.979C8.30741 10.979 8.12661 10.9046 7.97772 10.7557L7.27578 10.0218C7.12689 9.87292 7.05244 9.69212 7.05244 9.47942C7.05244 9.26671 7.12689 9.08591 7.27578 8.93701L10.3388 5.87402L7.27578 2.81104C7.12689 2.66214 7.05244 2.48134 7.05244 2.26863C7.05244 2.05592 7.12689 1.87512 7.27578 1.72623L7.97772 0.992386C8.0628 0.928574 8.14788 0.875397 8.23296 0.832855C8.33932 0.790314 8.43504 0.769043 8.52012 0.769043C8.62647 0.769043 8.72219 0.790314 8.80728 0.832855C8.91363 0.875397 8.99871 0.928574 9.06252 0.992386L13.4018 5.33162Z" fill="#FF6600"/>
</svg>
